# xmcd
#
# Track frame offsets:
#	150
#	19657
#	36517
#	50510
#	63972
#	84567
#	96245
#	112505
#	126717
#	139135
#	156527
#	174772
#	189312
#	209767
#
# Disc length: 3027 seconds
#
# Revision: 1
# Processed by: cddbd v1.5.1PL0 Copyright (c) Steve Scherf et al.
# Submitted via: audiograbber 1.83.01
#
DISCID=c50bd10e
DTITLE=Nashville Train - Country and Western Party CD1
DYEAR=1994
DGENRE=Country
TTITLE0=Achy breaky heart
TTITLE1=Folsom prison blueas
TTITLE2=Riding on the Nashville Train
TTITLE3=Ring of fire
TTITLE4=God must be a Cowboy
TTITLE5=Steel guitar rag
TTITLE6=All my exes lives in Texas
TTITLE7=On the road agein
TTITLE8=Don't make my brown eyes blue
TTITLE9=Find my love
TTITLE10=Blanket on the ground
TTITLE11=Born to boogie
TTITLE12=L.A. International Airport
TTITLE13=Some broken heart
EXTD=
EXTT0=
EXTT1=
EXTT2=
EXTT3=
EXTT4=
EXTT5=
EXTT6=
EXTT7=
EXTT8=
EXTT9=
EXTT10=
EXTT11=Featuring Lewis Glover
EXTT12=
EXTT13=
PLAYORDER=
